<svg width="28" height="28" viewBox="0 0 28 28" fill="none" xmlns="http://www.w3.org/2000/svg">
<path d="M3.10895 24.8889H26.4261C27.2846 24.8889 27.9806 25.5853 27.9806 26.4444C27.9806 27.3036 27.2846 28 26.4261 28H1.55448C0.695963 28 0 27.3036 0 26.4444V1.55556C0 0.696446 0.695963 0 1.55448 0C2.41299 0 3.10895 0.696446 3.10895 1.55556V24.8889Z" fill="#4AD991"/>
<path opacity="0.5" d="M8.90642 18.175C8.31925 18.8018 7.33552 18.8335 6.70921 18.2459C6.08289 17.6584 6.05116 16.6739 6.63833 16.0472L12.4676 9.82497C13.0355 9.21882 13.9791 9.16626 14.6107 9.70558L19.2115 13.6344L25.206 6.03609C25.738 5.36179 26.7155 5.24671 27.3893 5.77906C28.0631 6.3114 28.1781 7.28958 27.6462 7.96388L20.651 16.8305C20.1047 17.5231 19.0926 17.6227 18.4219 17.0499L13.7211 13.0358L8.90642 18.175Z" fill="#4AD991"/>
</svg>
