<svg width="17" height="16" viewBox="0 0 17 16" fill="none" xmlns="http://www.w3.org/2000/svg">
<path d="M4.29474 0L5.36842 1.07368L2.50526 3.93684L1.96842 4.38421L1.43158 3.93684L0 2.50526L1.07368 1.43158L1.96842 2.37105L4.29474 0ZM7.69474 1.25263H17V2.68421H7.69474V1.25263ZM4.29474 5.72632L5.36842 6.8L2.50526 9.66316L1.96842 10.1105L1.43158 9.66316L0 8.23158L1.07368 7.15789L1.96842 8.09737L4.29474 5.72632ZM7.69474 6.97895H17V8.41053H7.69474V6.97895ZM4.29474 11.4526L5.36842 12.5263L2.50526 15.3895L1.96842 15.8368L1.43158 15.3895L0 13.9579L1.07368 12.8842L1.96842 13.8237L4.29474 11.4526ZM7.69474 12.7053H17V14.1368H7.69474V12.7053Z" fill="#202224"/>
</svg>
