<svg width="20" height="17" viewBox="0 0 20 17" fill="none" xmlns="http://www.w3.org/2000/svg">
<path d="M5.28497 0C6.98791 0 8.51468 0.689983 9.86528 2.06995C11.2159 0.689983 12.7427 0 14.4456 0C15.9136 0 17.1615 0.528497 18.1891 1.58549C19.2168 2.61313 19.7306 3.84629 19.7306 5.28497C19.7306 5.87219 19.5838 6.47409 19.2902 7.09067C18.9965 7.67789 18.7029 8.11831 18.4093 8.41192L17.9689 8.80829L10.3938 16.4715L9.86528 17L9.33679 16.4715L1.76166 8.80829C1.46805 8.54404 1.17444 8.20639 0.880829 7.79534C0.29361 6.91451 0 6.07772 0 5.28497C0 3.84629 0.513817 2.61313 1.54145 1.58549C2.56908 0.528497 3.81693 0 5.28497 0ZM5.28497 1.40933C4.22798 1.40933 3.31779 1.79102 2.5544 2.5544C1.79102 3.31779 1.40933 4.22798 1.40933 5.28497C1.40933 5.78411 1.61485 6.35665 2.02591 7.00259L2.73057 7.83938L9.86528 14.9741L17 7.83938C17.8808 6.87047 18.3212 6.019 18.3212 5.28497C18.3212 4.22798 17.9396 3.31779 17.1762 2.5544C16.4128 1.79102 15.5026 1.40933 14.4456 1.40933C13.829 1.40933 13.1831 1.58549 12.5078 1.93782C11.8325 2.26079 11.304 2.59845 10.9223 2.95078L10.3938 3.43523L9.86528 4.05181L9.33679 3.43523C9.18998 3.28843 8.98446 3.11226 8.72021 2.90674C8.48532 2.67185 8.00086 2.36356 7.26684 1.98187C6.56218 1.60017 5.90155 1.40933 5.28497 1.40933Z" fill="#202224"/>
</svg>
