<svg width="19" height="19" viewBox="0 0 19 19" fill="none" xmlns="http://www.w3.org/2000/svg">
<path d="M9.49395 0.103677C14.6799 0.103915 18.8842 4.31055 18.8842 9.5C18.8842 14.6895 14.6799 18.8961 9.49395 18.8963C4.3078 18.8963 0.103677 14.6896 0.103677 9.5C0.103677 4.3104 4.3078 0.103677 9.49395 0.103677Z" stroke="#5C5C5C" stroke-width="0.2"/>
<path d="M9.49345 10.3187L7.15272 7.58601C6.98001 7.38438 6.7 7.38438 6.5273 7.58601C6.35459 7.78764 6.35459 8.11454 6.5273 8.31617L9.18073 11.414C9.35344 11.6156 9.63345 11.6156 9.80616 11.414L12.4596 8.31617C12.6323 8.11454 12.6323 7.78764 12.4596 7.58601C12.2869 7.38438 12.0069 7.38438 11.8342 7.58601L9.49345 10.3187Z" fill="#565656"/>
<mask id="mask0_0_6" style="mask-type:luminance" maskUnits="userSpaceOnUse" x="6" y="7" width="7" height="5">
<path d="M9.49345 10.3187L7.15272 7.58601C6.98001 7.38438 6.7 7.38438 6.5273 7.58601C6.35459 7.78764 6.35459 8.11454 6.5273 8.31617L9.18073 11.414C9.35344 11.6156 9.63345 11.6156 9.80616 11.414L12.4596 8.31617C12.6323 8.11454 12.6323 7.78764 12.4596 7.58601C12.2869 7.38438 12.0069 7.38438 11.8342 7.58601L9.49345 10.3187Z" fill="white"/>
</mask>
<g mask="url(#mask0_0_6)">
</g>
</svg>
