<svg width="17" height="17" viewBox="0 0 17 17" fill="none" xmlns="http://www.w3.org/2000/svg">
<path d="M2.47918 2.52344C4.16148 0.841146 6.16842 0 8.50002 0C10.8316 0 12.8238 0.841146 14.4766 2.52344C16.1589 4.17622 17 6.1684 17 8.5C17 10.8316 16.1589 12.8385 14.4766 14.5208C12.8238 16.1736 10.8316 17 8.50002 17C6.16842 17 4.16148 16.1736 2.47918 14.5208C0.826407 12.8385 1.76863e-05 10.8316 1.76863e-05 8.5C1.76863e-05 6.1684 0.826407 4.17622 2.47918 2.52344ZM13.5026 3.4974C12.1155 2.11024 10.4479 1.41667 8.50002 1.41667C6.5521 1.41667 4.88457 2.11024 3.49741 3.4974C2.11026 4.88455 1.41668 6.55208 1.41668 8.5C1.41668 10.4479 2.11026 12.1155 3.49741 13.5026C4.88457 14.8898 6.5521 15.5833 8.50002 15.5833C10.4479 15.5833 12.1155 14.8898 13.5026 13.5026C14.8898 12.1155 15.5834 10.4479 15.5834 8.5C15.5834 6.55208 14.8898 4.88455 13.5026 3.4974ZM7.96877 2.34635C8.11634 2.19878 8.29342 2.125 8.50002 2.125C8.70661 2.125 8.86894 2.19878 8.987 2.34635C9.13457 2.46441 9.20835 2.62674 9.20835 2.83333C9.20835 3.03993 9.13457 3.21701 8.987 3.36458C8.86894 3.48264 8.70661 3.54167 8.50002 3.54167C8.29342 3.54167 8.11634 3.48264 7.96877 3.36458C7.85071 3.21701 7.79168 3.03993 7.79168 2.83333C7.79168 2.62674 7.85071 2.46441 7.96877 2.34635ZM3.98439 4.02865C4.13196 3.88108 4.29429 3.80729 4.47137 3.80729C4.67797 3.80729 4.85505 3.88108 5.00262 4.02865C5.15019 4.1467 5.22398 4.30903 5.22398 4.51563C5.22398 4.69271 5.15019 4.85503 5.00262 5.0026C4.85505 5.15017 4.67797 5.22396 4.47137 5.22396C4.29429 5.22396 4.13196 5.15017 3.98439 5.0026C3.86634 4.85503 3.80731 4.69271 3.80731 4.51563C3.80731 4.30903 3.86634 4.1467 3.98439 4.02865ZM11.9974 3.98438L13.0156 5.0026L9.87241 8.14583C9.90193 8.26389 9.91668 8.38194 9.91668 8.5C9.91668 8.88368 9.76911 9.22309 9.47398 9.51823C9.20835 9.78385 8.8837 9.91667 8.50002 9.91667C8.11634 9.91667 7.77693 9.78385 7.48179 9.51823C7.21616 9.22309 7.08335 8.88368 7.08335 8.5C7.08335 8.11632 7.21616 7.79167 7.48179 7.52604C7.77693 7.2309 8.11634 7.08333 8.50002 7.08333C8.61807 7.08333 8.73613 7.09809 8.85418 7.1276L11.9974 3.98438ZM2.3021 8.01302C2.44967 7.86545 2.62675 7.79167 2.83335 7.79167C3.03995 7.79167 3.20227 7.86545 3.32033 8.01302C3.4679 8.13108 3.54168 8.2934 3.54168 8.5C3.54168 8.7066 3.4679 8.88368 3.32033 9.03125C3.20227 9.14931 3.03995 9.20833 2.83335 9.20833C2.62675 9.20833 2.44967 9.14931 2.3021 9.03125C2.18405 8.88368 2.12502 8.7066 2.12502 8.5C2.12502 8.2934 2.18405 8.13108 2.3021 8.01302ZM13.6354 8.01302C13.783 7.86545 13.9601 7.79167 14.1667 7.79167C14.3733 7.79167 14.5356 7.86545 14.6537 8.01302C14.8012 8.13108 14.875 8.2934 14.875 8.5C14.875 8.7066 14.8012 8.88368 14.6537 9.03125C14.5356 9.14931 14.3733 9.20833 14.1667 9.20833C13.9601 9.20833 13.783 9.14931 13.6354 9.03125C13.5174 8.88368 13.4584 8.7066 13.4584 8.5C13.4584 8.2934 13.5174 8.13108 13.6354 8.01302ZM3.98439 11.9974C4.13196 11.8498 4.29429 11.776 4.47137 11.776C4.67797 11.776 4.85505 11.8498 5.00262 11.9974C5.15019 12.145 5.22398 12.322 5.22398 12.5286C5.22398 12.7057 5.15019 12.8681 5.00262 13.0156C4.85505 13.1337 4.67797 13.1927 4.47137 13.1927C4.29429 13.1927 4.13196 13.1337 3.98439 13.0156C3.86634 12.8681 3.80731 12.7057 3.80731 12.5286C3.80731 12.322 3.86634 12.145 3.98439 11.9974ZM11.9974 11.9974C12.145 11.8498 12.3073 11.776 12.4844 11.776C12.691 11.776 12.8533 11.8498 12.9714 11.9974C13.1189 12.145 13.1927 12.322 13.1927 12.5286C13.1927 12.7057 13.1189 12.8681 12.9714 13.0156C12.8533 13.1337 12.691 13.1927 12.4844 13.1927C12.3073 13.1927 12.145 13.1337 11.9974 13.0156C11.8498 12.8681 11.7761 12.7057 11.7761 12.5286C11.7761 12.322 11.8498 12.145 11.9974 11.9974Z" fill="black"/>
</svg>
