<svg width="17" height="16" viewBox="0 0 17 16" fill="none" xmlns="http://www.w3.org/2000/svg">
<path d="M5.56522 0C6.49275 0 7.36232 0.565217 8.17391 1.69565C8.17391 1.72464 8.23188 1.82609 8.34783 2C8.46377 1.82609 8.52174 1.72464 8.52174 1.69565C9.33333 0.565217 10.2029 0 11.1304 0C11.7101 0 12.2029 0.202899 12.6087 0.608696C13.0145 1.01449 13.2174 1.50725 13.2174 2.08696C13.2174 2.31884 13.1739 2.55072 13.087 2.78261H16H16.6957V3.47826V6.26087V6.95652H16V15.3043V16H15.3043H1.3913H0.695652V15.3043V6.95652H0V6.26087V3.47826V2.78261H0.695652H3.6087C3.52174 2.55072 3.47826 2.31884 3.47826 2.08696C3.47826 1.50725 3.68116 1.01449 4.08696 0.608696C4.49275 0.202899 4.98551 0 5.56522 0ZM5.56522 1.3913C5.10145 1.3913 4.86957 1.62319 4.86957 2.08696C4.86957 2.55072 5.10145 2.78261 5.56522 2.78261H7.17391C7.14493 2.75362 7.11594 2.71014 7.08696 2.65217C7.05797 2.5942 7.02899 2.53623 7 2.47826C6.47826 1.75362 6 1.3913 5.56522 1.3913ZM11.1304 1.3913C10.6957 1.3913 10.2174 1.75362 9.69565 2.47826C9.66667 2.53623 9.63768 2.57971 9.6087 2.6087C9.6087 2.6087 9.5942 2.63768 9.56522 2.69565C9.56522 2.72464 9.55072 2.75362 9.52174 2.78261H11.1304C11.5942 2.78261 11.8261 2.55072 11.8261 2.08696C11.8261 1.62319 11.5942 1.3913 11.1304 1.3913ZM1.3913 4.17391V5.56522H7.65217V4.86957H9.04348V5.56522H15.3043V4.17391H8.34783H7.30435H1.3913ZM2.08696 6.95652V14.6087H7.65217V7.65217H9.04348V14.6087H14.6087V6.95652H2.08696Z" fill="#202224"/>
</svg>
