<svg width="938" height="205" viewBox="0 0 938 205" fill="none" xmlns="http://www.w3.org/2000/svg">
<path fill-rule="evenodd" clip-rule="evenodd" d="M282.804 8C285.011 8 286.801 6.20914 286.801 4C286.801 1.79086 285.011 0 282.804 0C280.596 0 278.806 1.79086 278.806 4C278.806 6.20914 280.596 8 282.804 8Z" fill="#4880FF"/>
<path fill-rule="evenodd" clip-rule="evenodd" d="M248.827 107C251.035 107 252.824 105.209 252.824 103C252.824 100.791 251.035 99 248.827 99C246.62 99 244.83 100.791 244.83 103C244.83 105.209 246.62 107 248.827 107Z" fill="#4379EE"/>
<path fill-rule="evenodd" clip-rule="evenodd" d="M183.872 171C186.08 171 187.87 169.209 187.87 167C187.87 164.791 186.08 163 183.872 163C181.665 163 179.875 164.791 179.875 167C179.875 169.209 181.665 171 183.872 171Z" fill="#4379EE"/>
<path fill-rule="evenodd" clip-rule="evenodd" d="M147.897 111C150.105 111 151.894 109.209 151.894 107C151.894 104.791 150.105 103 147.897 103C145.69 103 143.9 104.791 143.9 107C143.9 109.209 145.69 111 147.897 111Z" fill="#4379EE"/>
<path fill-rule="evenodd" clip-rule="evenodd" d="M91.9362 120C94.1438 120 95.9334 118.209 95.9334 116C95.9334 113.791 94.1438 112 91.9362 112C89.7286 112 87.939 113.791 87.939 116C87.939 118.209 89.7286 120 91.9362 120Z" fill="#4379EE"/>
<path fill-rule="evenodd" clip-rule="evenodd" d="M61.9569 175C64.1645 175 65.9542 173.209 65.9542 171C65.9542 168.791 64.1645 167 61.9569 167C59.7493 167 57.9597 168.791 57.9597 171C57.9597 173.209 59.7493 175 61.9569 175Z" fill="#4379EE"/>
<path fill-rule="evenodd" clip-rule="evenodd" d="M3.99722 205C6.20483 205 7.99445 203.209 7.99445 201C7.99445 198.791 6.20483 197 3.99722 197C1.78962 197 0 198.791 0 201C0 203.209 1.78962 205 3.99722 205Z" fill="#4379EE"/>
<path fill-rule="evenodd" clip-rule="evenodd" d="M333.768 108C335.976 108 337.765 106.209 337.765 104C337.765 101.791 335.976 100 333.768 100C331.561 100 329.771 101.791 329.771 104C329.771 106.209 331.561 108 333.768 108Z" fill="#4379EE"/>
<path fill-rule="evenodd" clip-rule="evenodd" d="M412.713 102C414.921 102 416.711 100.209 416.711 98C416.711 95.7909 414.921 94 412.713 94C410.506 94 408.716 95.7909 408.716 98C408.716 100.209 410.506 102 412.713 102Z" fill="#4379EE"/>
<path fill-rule="evenodd" clip-rule="evenodd" d="M497.654 81C499.862 81 501.652 79.2091 501.652 77C501.652 74.7909 499.862 73 497.654 73C495.447 73 493.657 74.7909 493.657 77C493.657 79.2091 495.447 81 497.654 81Z" fill="#4379EE"/>
<path fill-rule="evenodd" clip-rule="evenodd" d="M519.639 191C521.847 191 523.636 189.209 523.636 187C523.636 184.791 521.847 183 519.639 183C517.432 183 515.642 184.791 515.642 187C515.642 189.209 517.432 191 519.639 191Z" fill="#4379EE"/>
<path fill-rule="evenodd" clip-rule="evenodd" d="M584.594 183C586.802 183 588.591 181.209 588.591 179C588.591 176.791 586.802 175 584.594 175C582.386 175 580.597 176.791 580.597 179C580.597 181.209 582.386 183 584.594 183Z" fill="#4379EE"/>
<path fill-rule="evenodd" clip-rule="evenodd" d="M670.534 51C672.742 51 674.532 49.2091 674.532 47C674.532 44.7909 672.742 43 670.534 43C668.327 43 666.537 44.7909 666.537 47C666.537 49.2091 668.327 51 670.534 51Z" fill="#4379EE"/>
<path fill-rule="evenodd" clip-rule="evenodd" d="M662.54 134C664.748 134 666.537 132.209 666.537 130C666.537 127.791 664.748 126 662.54 126C660.332 126 658.543 127.791 658.543 130C658.543 132.209 660.332 134 662.54 134Z" fill="#4379EE"/>
<path fill-rule="evenodd" clip-rule="evenodd" d="M691.52 89C693.727 89 695.517 87.2091 695.517 85C695.517 82.7909 693.727 81 691.52 81C689.312 81 687.523 82.7909 687.523 85C687.523 87.2091 689.312 89 691.52 89Z" fill="#4379EE"/>
<path fill-rule="evenodd" clip-rule="evenodd" d="M723.498 69C725.705 69 727.495 67.2091 727.495 65C727.495 62.7909 725.705 61 723.498 61C721.29 61 719.5 62.7909 719.5 65C719.5 67.2091 721.29 69 723.498 69Z" fill="#4379EE"/>
<path fill-rule="evenodd" clip-rule="evenodd" d="M835.42 92C837.627 92 839.417 90.2091 839.417 88C839.417 85.7909 837.627 84 835.42 84C833.212 84 831.423 85.7909 831.423 88C831.423 90.2091 833.212 92 835.42 92Z" fill="#4379EE"/>
<path fill-rule="evenodd" clip-rule="evenodd" d="M870.396 138C872.603 138 874.393 136.209 874.393 134C874.393 131.791 872.603 130 870.396 130C868.188 130 866.398 131.791 866.398 134C866.398 136.209 868.188 138 870.396 138Z" fill="#4379EE"/>
<path fill-rule="evenodd" clip-rule="evenodd" d="M891.381 97C893.589 97 895.378 95.2091 895.378 93C895.378 90.7909 893.589 89 891.381 89C889.173 89 887.384 90.7909 887.384 93C887.384 95.2091 889.173 97 891.381 97Z" fill="#4379EE"/>
<path fill-rule="evenodd" clip-rule="evenodd" d="M933.352 95C935.559 95 937.349 93.2091 937.349 91C937.349 88.7909 935.559 87 933.352 87C931.144 87 929.355 88.7909 929.355 91C929.355 93.2091 931.144 95 933.352 95Z" fill="#4379EE"/>
</svg>
