<svg width="9" height="5" viewBox="0 0 9 5" fill="none" xmlns="http://www.w3.org/2000/svg">
<path d="M4.37198 3.49112L1.06621 0.183059C0.822296 -0.0610195 0.426841 -0.0610195 0.182932 0.183059C-0.0609773 0.427137 -0.0609773 0.822866 0.182932 1.06694L3.93034 4.81695C4.17425 5.06103 4.56971 5.06103 4.81362 4.81695L8.56103 1.06694C8.80494 0.822866 8.80494 0.427137 8.56103 0.183059C8.31712 -0.0610195 7.92166 -0.0610195 7.67775 0.183059L4.37198 3.49112Z" fill="#646464"/>
<mask id="mask0_0_19" style="mask-type:luminance" maskUnits="userSpaceOnUse" x="0" y="0" width="9" height="5">
<path d="M4.37198 3.49112L1.06621 0.183059C0.822296 -0.0610195 0.426841 -0.0610195 0.182932 0.183059C-0.0609773 0.427137 -0.0609773 0.822866 0.182932 1.06694L3.93034 4.81695C4.17425 5.06103 4.56971 5.06103 4.81362 4.81695L8.56103 1.06694C8.80494 0.822866 8.80494 0.427137 8.56103 0.183059C8.31712 -0.0610195 7.92166 -0.0610195 7.67775 0.183059L4.37198 3.49112Z" fill="white"/>
</mask>
<g mask="url(#mask0_0_19)">
</g>
</svg>
