<svg width="30" height="34" viewBox="0 0 30 34" fill="none" xmlns="http://www.w3.org/2000/svg">
<path fill-rule="evenodd" clip-rule="evenodd" d="M0 11.3243L12.9005 18.7776C13.0394 18.8579 13.1851 18.9158 13.3333 18.9526V33.4079L0.920065 26.0566C0.349784 25.7189 0 25.105 0 24.4419V11.3243ZM30 11.1262V24.4419C30 25.105 29.6502 25.7189 29.0799 26.0566L16.6667 33.4079V18.826C16.6969 18.8109 16.7269 18.7947 16.7566 18.7776L30 11.1262Z" fill="#FEC53D"/>
<path opacity="0.499209" fill-rule="evenodd" clip-rule="evenodd" d="M0.405249 7.70677C0.562824 7.50765 0.761712 7.33936 0.993591 7.21577L14.1186 0.220252C14.6696 -0.0734174 15.3305 -0.0734174 15.8815 0.220252L29.0065 7.21577C29.1852 7.31104 29.3443 7.43287 29.4801 7.57491L15.0899 15.8888C14.9953 15.9435 14.9081 16.0061 14.8285 16.0752C14.749 16.0061 14.6618 15.9435 14.5672 15.8888L0.405249 7.70677Z" fill="#FEC53D"/>
</svg>
